#N canvas -7 0 1915 980 12;
#X obj 694 64 netreceive -b -u;
#X obj 690 103 oscparse;
#X msg 689 30 listen 5005;
#N canvas 73 171 815 653 counter 0;
#X obj 336 29 inlet;
#X obj 42 78 tgl 19 0 empty empty empty 0 -10 0 12 #fcfcfc #000000 #000000 0 1;
#X obj 57 106 t f b;
#X obj 74 261 f;
#X obj 133 265 + 1, f 6;
#X obj 89 472 outlet;
#X obj 60 182 metro;
#X floatatom 139 81 5 0 0 0 - - - 0;
#X obj 124 29 inlet, f 6;
#X msg 249 481 0;
#X obj 31 27 inlet;
#X obj 36 53 bng 19 250 50 0 empty empty empty 0 -10 0 12 #fcfcfc #000000 #000000;
#X obj 340 67 tgl 19 0 empty empty empty 0 -10 0 12 #fcfcfc #000000 #000000 0 1;
#X obj 235 434 spigot;
#X floatatom 85 312 5 0 0 0 - - - 0;
#X obj 251 348 bng 19 250 50 0 empty empty empty 0 -10 0 12 #fcfcfc #000000 #000000;
#X obj 311 236 - 1;
#X obj 307 296 tgl 19 0 empty empty empty 0 -10 0 12 #fcfcfc #000000 #000000 0 1;
#X msg 120 182 0, f 2;
#X obj 123 369 sel 15;
#X connect 0 0 12 0;
#X connect 1 0 2 0;
#X connect 2 0 6 0;
#X connect 2 1 18 0;
#X connect 3 0 4 0;
#X connect 3 0 14 0;
#X connect 4 0 3 1;
#X connect 6 0 3 0;
#X connect 7 0 6 1;
#X connect 8 0 7 0;
#X connect 9 0 1 0;
#X connect 10 0 11 0;
#X connect 11 0 1 0;
#X connect 12 0 16 0;
#X connect 13 0 9 0;
#X connect 14 0 5 0;
#X connect 14 0 19 0;
#X connect 15 0 13 0;
#X connect 15 0 18 0;
#X connect 16 0 17 0;
#X connect 17 0 13 1;
#X connect 18 0 3 1;
#X connect 19 0 15 0;
#X restore 393 375 pd counter;
#X obj 395 426 hradio 19 1 0 16 empty empty empty 0 -10 0 12 #fcfcfc #000000 #000000 0;
#X obj 392 537 array get \$0-steps;
#X msg 450 483 1;
#X floatatom 393 575 5 0 0 0 - - - 0;
#X obj 394 628 + 0.5;
#X obj 394 678 int;
#X floatatom 395 736 5 0 0 0 - - - 0;
#X obj 395 790 select 0 1 2 3 4 5 6;
#N canvas 994 0 913 980 kick 0;
#X obj 57 17 inlet;
#X obj 132 14 inlet;
#X obj 65 60 bng 19 250 50 0 empty empty empty 0 -10 0 12 #fcfcfc #000000 #000000;
#X obj 113 112 f;
#X msg 68 158 150 \, 50 70 0;
#X obj 73 221 vline~;
#X msg 139 219 \$1 1 0 \, 0 100 1;
#X obj 153 279 vline~;
#X obj 74 284 osc~;
#X obj 77 337 *~;
#X obj 81 413 outlet~;
#X connect 0 0 2 0;
#X connect 1 0 3 1;
#X connect 2 0 3 0;
#X connect 2 0 4 0;
#X connect 3 0 6 0;
#X connect 4 0 5 0;
#X connect 5 0 8 0;
#X connect 6 0 7 0;
#X connect 7 0 9 1;
#X connect 8 0 9 0;
#X connect 9 0 10 0;
#X restore 397 858 pd kick;
#N canvas 1105 0 450 942 snare 0;
#X obj 128 18 inlet;
#X obj 194 17 inlet;
#X obj 168 72 f;
#X msg 168 110 \$1 1 0 \, 0 150 1;
#X obj 170 147 vline~;
#X obj 176 202 *~;
#X obj 105 276 *~;
#X obj 101 163 osc~ 180;
#X obj 102 207 *~ 0.5;
#X obj 29 123 hip~ 1000;
#X obj 26 80 lop~ 3000;
#X obj 24 34 noise~;
#X obj 112 372 outlet~;
#X connect 0 0 2 0;
#X connect 1 0 2 1;
#X connect 2 0 3 0;
#X connect 3 0 4 0;
#X connect 4 0 5 0;
#X connect 4 0 5 1;
#X connect 5 0 6 1;
#X connect 6 0 12 0;
#X connect 7 0 8 0;
#X connect 8 0 6 0;
#X connect 9 0 8 0;
#X connect 10 0 9 0;
#X connect 11 0 10 0;
#X restore 478 860 pd snare;
#N canvas 1095 354 450 438 hats 0;
#X obj 174 8 inlet;
#X obj 244 5 inlet;
#X obj 175 47 bng 19 250 50 0 empty empty empty 0 -10 0 12 #fcfcfc #000000 #000000;
#X obj 174 77 f;
#X obj 242 108 t f b;
#X obj 242 284 *, f 5;
#X obj 280 141 random 10;
#X obj 280 187 / 20;
#X obj 280 231 + 0.7;
#X msg 123 244 \$1 \, 0 0 40 1;
#X obj 121 286 vline~;
#X obj 54 337 *~;
#X obj 58 399 outlet~;
#X obj 25 278 hip~ 10000;
#X obj 26 228 hip~ 20000;
#X obj 27 161 noise~;
#X connect 0 0 2 0;
#X connect 1 0 3 1;
#X connect 2 0 3 0;
#X connect 3 0 4 0;
#X connect 4 0 5 0;
#X connect 4 1 6 0;
#X connect 5 0 9 0;
#X connect 6 0 7 0;
#X connect 7 0 8 0;
#X connect 8 0 5 1;
#X connect 9 0 10 0;
#X connect 10 0 11 1;
#X connect 11 0 12 0;
#X connect 13 0 11 0;
#X connect 14 0 13 0;
#X connect 15 0 14 0;
#X restore 576 865 pd hats;
#X floatatom 468 752 5 0 1 0 - - - 0;
#X floatatom 655 749 5 0 1 0 - - - 0;
#X obj 463 927 +~;
#X floatatom 558 750 5 0 1 0 - - - 0;
#N canvas 0 50 450 250 (subpatch) 0;
#X array \$0-steps 16 float 3;
#A 0 1.30176 0.527602 0.239745 0.272639 1.37144 0.562549 0.3056 0.352138 0.932324 0.514352 0.351183 0.370565 0.615346 0.427278 0.337638 0.330238;
#A color 0;
#A width 2;
#X coords 0 6 16 0 200 140 1;
#X restore 1196 719 graph;
#X obj 707 136 route list;
#X floatatom 806 517 5 0 0 0 - - - 0;
#X floatatom 848 518 5 0 0 0 - - - 0;
#X floatatom 766 516 5 0 0 0 - - - 0;
#X floatatom 885 521 5 0 0 0 - - - 0;
#X floatatom 933 519 5 0 0 0 - - - 0;
#X floatatom 1013 519 5 0 0 0 - - - 0;
#X floatatom 1053 519 5 0 0 0 - - - 0;
#X floatatom 1226 518 5 0 0 0 - - - 0;
#X floatatom 1266 519 5 0 0 0 - - - 0;
#X floatatom 972 518 5 0 0 0 - - - 0;
#X floatatom 1351 516 5 0 0 0 - - - 0;
#X floatatom 1524 522 5 0 0 0 - - - 0;
#X floatatom 1311 515 5 0 0 0 - - - 0;
#X floatatom 1562 522 5 0 0 0 - - - 0;
#X floatatom 1604 522 5 0 0 0 - - - 0;
#X floatatom 1643 521 5 0 0 0 - - - 0;
#X obj 746 573 t f b;
#X obj 789 575 t f b;
#X obj 835 577 t f b;
#X obj 877 578 t f b;
#X obj 924 578 t f b;
#X obj 967 580 t f b;
#X obj 1013 582 t f b;
#X obj 1056 584 t f b;
#X obj 1126 586 t f b;
#X obj 1167 583 t f b;
#X obj 1207 585 t f b;
#X obj 1250 587 t f b;
#X obj 1299 587 t f b;
#X obj 1342 587 t f b;
#X obj 1384 584 t f b;
#X obj 1447 582 t f b;
#X obj 1050 723 list trim;
#X obj 1034 824 array set \$0-steps;
#X obj 805 468 * 6;
#X obj 833 468 * 6;
#X obj 863 468 * 6;
#X obj 892 470 * 6;
#X obj 952 471 * 6;
#X obj 980 471 * 6;
#X obj 1010 471 * 6;
#X obj 1038 471 * 6;
#X obj 1248 473 * 6;
#X obj 1276 473 * 6;
#X obj 1306 473 * 6;
#X obj 1334 473 * 6;
#X obj 1542 477 * 6;
#X obj 1570 477 * 6;
#X obj 1600 477 * 6;
#X obj 1628 477 * 6;
#X obj 428 232 hsl 162 19 0 10000 0 0 empty empty empty -2 -10 0 12 #fcfcfc #000000 #000000 0 1;
#X obj 332 298 bng 19 250 50 0 empty empty empty 0 -10 0 12 #fcfcfc #000000 #000000;
#X obj 319 228 t b;
#X msg 471 724 1;
#X msg 555 720 1;
#X msg 626 722 1;
#X obj 529 654 loadbang;
#X obj 393 329 max 10;
#X floatatom 372 293 5 0 0 0 - - - 0;
#X obj 461 956 dac~;
#X obj 724 180 route cell;
#X obj 1088 204 route one;
#X obj 1398 204 route two;
#X obj 2028 181 route three;
#X obj 680 223 route zero;
#X obj 694 286 route one;
#X obj 766 286 route two;
#X obj 838 285 route three;
#X obj 617 285 route zero;
#X obj 1127 292 route one;
#X obj 1195 294 route two;
#X obj 1267 293 route three;
#X obj 1046 293 route zero;
#X obj 1480 291 route one;
#X obj 1552 291 route two;
#X obj 1624 290 route three;
#X obj 1403 290 route zero;
#X obj 2076 264 route one;
#X obj 2148 264 route two;
#X obj 2220 263 route three;
#X obj 1999 263 route zero;
#X obj 620 157 print;
#X obj 572 352 route brightness;
#X obj 694 351 route brightness;
#X obj 817 350 route brightness;
#X obj 939 349 route brightness;
#X obj 1059 349 route brightness;
#X obj 1181 348 route brightness;
#X obj 1304 347 route brightness;
#X obj 1426 346 route brightness;
#X obj 1547 347 route brightness;
#X obj 1669 346 route brightness;
#X obj 1792 345 route brightness;
#X obj 1914 344 route brightness;
#X obj 2033 342 route brightness;
#X obj 2155 341 route brightness;
#X obj 2278 340 route brightness;
#X obj 2422 333 route brightness;
#X obj 1098 639 pack f f f f f f f f f f f f f f f f;
#X obj 605 511 +~;
#X obj 614 324 route r;
#X obj 708 325 route r;
#X obj 811 321 route r;
#X obj 945 325 route r;
#X obj 1065 325 route r;
#X obj 1159 326 route r;
#X obj 1262 322 route r;
#X obj 1396 326 route r;
#X obj 1495 319 route r;
#X obj 1572 322 route r;
#X obj 1668 320 route r;
#X obj 1784 318 route r;
#X obj 2057 308 route r;
#X obj 2134 311 route r;
#X obj 2230 309 route r;
#X obj 2346 307 route r;
#X floatatom 747 429 5 0 0 0 - - - 0;
#X obj 735 392 expr 1-($f1 + $f2 + $f3 + $f4 + $f5 + $f6 + $f7 + $f8 + $f9 + $f10 + $f11 + $f12 + $f13 + $f14 + $f15 + $f16)/16, f 113;
#X obj 475 264 * 1000;
#X connect 0 0 1 0;
#X connect 1 0 20 0;
#X connect 1 0 102 0;
#X connect 2 0 0 0;
#X connect 2 0 73 0;
#X connect 3 0 4 0;
#X connect 4 0 5 0;
#X connect 5 0 7 0;
#X connect 6 0 5 1;
#X connect 7 0 8 0;
#X connect 8 0 9 0;
#X connect 9 0 10 0;
#X connect 10 0 11 0;
#X connect 11 0 12 0;
#X connect 11 1 13 0;
#X connect 11 2 14 0;
#X connect 11 3 12 0;
#X connect 11 3 13 0;
#X connect 11 4 12 0;
#X connect 11 4 14 0;
#X connect 11 5 13 0;
#X connect 11 5 14 0;
#X connect 11 6 12 0;
#X connect 11 6 13 0;
#X connect 11 6 14 0;
#X connect 12 0 17 0;
#X connect 13 0 17 0;
#X connect 14 0 17 0;
#X connect 15 0 12 1;
#X connect 16 0 14 1;
#X connect 17 0 80 0;
#X connect 17 0 80 1;
#X connect 18 0 13 1;
#X connect 20 0 81 0;
#X connect 21 0 38 0;
#X connect 22 0 39 0;
#X connect 23 0 37 0;
#X connect 24 0 40 0;
#X connect 25 0 41 0;
#X connect 26 0 43 0;
#X connect 27 0 44 0;
#X connect 28 0 45 0;
#X connect 29 0 46 0;
#X connect 30 0 42 0;
#X connect 31 0 48 0;
#X connect 32 0 49 0;
#X connect 33 0 47 0;
#X connect 34 0 50 0;
#X connect 35 0 51 0;
#X connect 36 0 52 0;
#X connect 37 0 119 0;
#X connect 37 1 119 0;
#X connect 38 0 119 1;
#X connect 38 1 119 0;
#X connect 39 0 119 2;
#X connect 39 1 119 0;
#X connect 40 0 119 3;
#X connect 40 1 119 0;
#X connect 41 0 119 4;
#X connect 41 1 119 0;
#X connect 42 0 119 5;
#X connect 42 1 119 0;
#X connect 43 0 119 6;
#X connect 43 1 119 0;
#X connect 44 0 119 7;
#X connect 44 1 119 0;
#X connect 45 0 119 8;
#X connect 45 1 119 0;
#X connect 46 0 119 9;
#X connect 46 1 119 0;
#X connect 47 0 119 10;
#X connect 47 1 119 0;
#X connect 48 0 119 11;
#X connect 48 1 119 0;
#X connect 49 0 119 12;
#X connect 49 1 119 0;
#X connect 50 0 119 13;
#X connect 50 1 119 0;
#X connect 51 0 119 14;
#X connect 51 1 119 0;
#X connect 52 0 119 15;
#X connect 52 1 119 0;
#X connect 53 0 54 0;
#X connect 55 0 23 0;
#X connect 56 0 21 0;
#X connect 57 0 22 0;
#X connect 58 0 24 0;
#X connect 59 0 25 0;
#X connect 60 0 30 0;
#X connect 61 0 26 0;
#X connect 62 0 27 0;
#X connect 63 0 28 0;
#X connect 64 0 29 0;
#X connect 65 0 33 0;
#X connect 66 0 31 0;
#X connect 67 0 32 0;
#X connect 68 0 34 0;
#X connect 69 0 35 0;
#X connect 70 0 36 0;
#X connect 71 0 79 0;
#X connect 72 0 3 0;
#X connect 73 0 72 0;
#X connect 74 0 15 0;
#X connect 75 0 18 0;
#X connect 76 0 16 0;
#X connect 77 0 74 0;
#X connect 77 0 75 0;
#X connect 77 0 76 0;
#X connect 78 0 3 1;
#X connect 79 0 78 0;
#X connect 81 0 85 0;
#X connect 81 0 82 0;
#X connect 81 0 83 0;
#X connect 81 0 84 0;
#X connect 82 0 93 0;
#X connect 82 0 90 0;
#X connect 82 0 91 0;
#X connect 82 0 92 0;
#X connect 83 0 97 0;
#X connect 83 0 94 0;
#X connect 83 0 95 0;
#X connect 83 0 96 0;
#X connect 84 0 101 0;
#X connect 84 0 98 0;
#X connect 84 0 99 0;
#X connect 84 0 100 0;
#X connect 85 0 89 0;
#X connect 85 0 86 0;
#X connect 85 0 87 0;
#X connect 85 0 88 0;
#X connect 86 0 104 0;
#X connect 86 0 122 0;
#X connect 87 0 105 0;
#X connect 87 0 123 0;
#X connect 88 0 106 0;
#X connect 88 0 124 0;
#X connect 89 0 103 0;
#X connect 89 0 121 0;
#X connect 90 0 108 0;
#X connect 90 0 126 0;
#X connect 91 0 109 0;
#X connect 91 0 127 0;
#X connect 92 0 110 0;
#X connect 92 0 128 0;
#X connect 93 0 107 0;
#X connect 93 0 125 0;
#X connect 94 0 112 0;
#X connect 95 0 113 0;
#X connect 96 0 114 0;
#X connect 96 0 132 0;
#X connect 97 0 111 0;
#X connect 97 0 131 0;
#X connect 97 0 130 0;
#X connect 97 0 129 0;
#X connect 98 0 116 0;
#X connect 98 0 134 0;
#X connect 99 0 117 0;
#X connect 99 0 135 0;
#X connect 100 0 118 0;
#X connect 100 0 136 0;
#X connect 101 0 115 0;
#X connect 101 0 133 0;
#X connect 103 0 55 0;
#X connect 104 0 56 0;
#X connect 105 0 57 0;
#X connect 106 0 58 0;
#X connect 107 0 59 0;
#X connect 108 0 60 0;
#X connect 109 0 61 0;
#X connect 110 0 62 0;
#X connect 111 0 63 0;
#X connect 112 0 64 0;
#X connect 113 0 65 0;
#X connect 114 0 66 0;
#X connect 115 0 67 0;
#X connect 116 0 68 0;
#X connect 117 0 69 0;
#X connect 118 0 70 0;
#X connect 119 0 53 0;
#X connect 121 0 103 1;
#X connect 121 0 138 0;
#X connect 122 0 138 1;
#X connect 123 0 138 2;
#X connect 124 0 138 3;
#X connect 125 0 138 4;
#X connect 126 0 138 5;
#X connect 127 0 138 6;
#X connect 128 0 138 7;
#X connect 129 0 138 8;
#X connect 130 0 138 9;
#X connect 131 0 138 10;
#X connect 132 0 138 11;
#X connect 133 0 138 12;
#X connect 134 0 138 13;
#X connect 135 0 138 14;
#X connect 136 0 138 15;
#X connect 137 0 139 0;
#X connect 138 0 137 0;
#X connect 139 0 79 0;
